<svg width="320" height="320" viewBox="0 0 320 320" fill="none" xmlns="http://www.w3.org/2000/svg">
<path d="M8.65363 79.7371C8.65363 96.8909 18.0071 111.86 31.8921 119.823C25.2405 134.376 21.9645 150.596 21.9645 167.696C21.9645 230.591 61.9885 281.576 159.87 281.576C257.751 281.576 297.776 230.591 297.776 167.696C297.776 150.596 294.5 134.376 287.849 119.823C301.733 111.86 311.087 96.8909 311.087 79.7371C311.087 54.2343 290.413 33.5603 264.91 33.5603C245.281 33.5603 228.512 45.8079 221.829 63.0781C204.313 57.118 183.686 53.8159 159.87 53.8159C136.053 53.8159 115.427 57.118 97.9107 63.0781C91.2279 45.8079 74.4594 33.5603 54.8304 33.5603C29.3277 33.5603 8.65363 54.2343 8.65363 79.7371Z" stroke="url(#paint0_linear_1859_75878)" stroke-width="1.06667" stroke-linecap="round" stroke-linejoin="round"/>
<path d="M159.87 250.111C117.653 250.111 87.9438 247.89 68.8012 244.309C59.2251 242.518 52.3291 240.392 47.8406 238.055C43.3227 235.702 41.4119 233.23 41.4119 230.807H40.3453C40.3453 233.862 42.7515 236.608 47.3479 239.002C51.9741 241.411 58.9903 243.559 68.605 245.358C87.8438 248.957 117.63 251.178 159.87 251.178V250.111ZM41.4119 230.807C41.4119 228.407 43.5199 225.931 48.35 223.565C53.132 221.223 60.3797 219.096 70.1885 217.306C89.7967 213.724 119.508 211.504 159.87 211.504V210.437C119.482 210.437 89.6967 212.658 69.9969 216.256C60.1517 218.054 52.7924 220.203 47.8809 222.607C43.0175 224.989 40.3453 227.729 40.3453 230.807H41.4119ZM159.87 251.178C202.11 251.178 231.897 248.957 251.135 245.358C260.75 243.559 267.766 241.411 272.393 239.002C276.989 236.608 279.395 233.862 279.395 230.807H278.329C278.329 233.23 276.418 235.702 271.9 238.055C267.411 240.392 260.515 242.518 250.94 244.309C231.796 247.89 202.087 250.111 159.87 250.111V251.178ZM279.395 230.807C279.395 227.729 276.723 224.989 271.859 222.607C266.948 220.203 259.588 218.054 249.744 216.256C230.044 212.658 200.259 210.437 159.87 210.437V211.504C200.233 211.504 229.943 213.724 249.552 217.306C259.361 219.096 266.608 221.223 271.391 223.565C276.221 225.931 278.329 228.407 278.329 230.807H279.395Z" fill="url(#paint1_linear_1859_75878)"/>
<path d="M159.855 221.398C112.73 221.398 79.5598 219.178 58.1824 215.596C47.4887 213.804 39.7799 211.676 34.7579 209.333C29.6859 206.966 27.5698 204.486 27.5698 202.095H26.5031C26.5031 205.181 29.2054 207.919 34.307 210.3C39.4587 212.703 47.2788 214.85 58.006 216.648C79.4703 220.244 112.709 222.465 159.855 222.465V221.398ZM27.5698 202.095C27.5698 200.915 28.1402 199.709 29.4162 198.481C30.6962 197.251 32.6527 196.036 35.3284 194.862C40.6776 192.515 48.7784 190.387 59.7314 188.594C81.6279 185.011 114.8 182.792 159.855 182.792V181.725C114.775 181.725 81.5383 183.946 59.5591 187.542C48.5743 189.34 40.3706 191.485 34.8999 193.885C32.1657 195.085 30.0833 196.361 28.6769 197.713C27.2665 199.069 26.5031 200.536 26.5031 202.095H27.5698ZM159.855 222.465C207.002 222.465 240.24 220.244 261.705 216.648C272.432 214.85 280.252 212.703 285.404 210.3C290.506 207.919 293.207 205.181 293.207 202.095H292.141C292.141 204.486 290.025 206.966 284.953 209.333C279.931 211.676 272.222 213.804 261.529 215.596C240.15 219.178 206.98 221.398 159.855 221.398V222.465ZM293.207 202.095C293.207 200.536 292.444 199.069 291.034 197.713C289.628 196.361 287.545 195.085 284.811 193.885C279.34 191.485 271.136 189.34 260.151 187.542C238.173 183.946 204.934 181.725 159.855 181.725V182.792C204.911 182.792 238.083 185.011 259.98 188.594C270.932 190.387 279.033 192.515 284.382 194.862C287.058 196.036 289.014 197.251 290.294 198.481C291.57 199.709 292.141 200.915 292.141 202.095H293.207Z" fill="url(#paint2_linear_1859_75878)"/>
<path d="M159.855 192.177C111.086 192.177 76.7574 189.957 54.6319 186.374C43.5642 184.581 35.5833 182.453 30.3828 180.109C27.7819 178.937 25.9072 177.724 24.6895 176.496C23.4774 175.275 22.9396 174.065 22.9396 172.874H21.8729C21.8729 174.421 22.5816 175.886 23.9322 177.247C25.2772 178.603 27.281 179.881 29.9444 181.082C35.2722 183.484 43.3615 185.63 54.4613 187.427C76.6709 191.024 111.067 193.244 159.855 193.244V192.177ZM22.9396 172.874C22.9396 171.701 23.5265 170.496 24.8494 169.267C26.1758 168.035 28.2026 166.818 30.9737 165.644C36.5128 163.296 44.8991 161.167 56.2351 159.374C78.8977 155.791 113.228 153.571 159.855 153.571V152.505C113.205 152.505 78.8111 154.724 56.0685 158.321C44.7019 160.118 36.2154 162.264 30.5574 164.661C27.7298 165.86 25.5771 167.135 24.1234 168.485C22.6663 169.839 21.8729 171.308 21.8729 172.874H22.9396ZM159.855 193.244C208.643 193.244 243.039 191.024 265.249 187.427C276.349 185.63 284.437 183.484 289.765 181.082C292.429 179.881 294.433 178.603 295.778 177.247C297.129 175.886 297.837 174.421 297.837 172.874H296.77C296.77 174.065 296.233 175.275 295.021 176.496C293.803 177.724 291.928 178.937 289.327 180.109C284.127 182.453 276.146 184.581 265.078 186.374C242.953 189.957 208.624 192.177 159.855 192.177V193.244ZM297.837 172.874C297.837 171.308 297.043 169.839 295.586 168.485C294.133 167.135 291.98 165.86 289.153 164.661C283.494 162.264 275.008 160.118 263.642 158.321C240.899 154.724 206.505 152.505 159.855 152.505V153.571C206.482 153.571 240.813 155.791 263.475 159.374C274.811 161.167 283.197 163.296 288.736 165.644C291.507 166.818 293.534 168.035 294.861 169.267C296.183 170.496 296.77 171.701 296.77 172.874H297.837Z" fill="url(#paint3_linear_1859_75878)"/>
<path d="M159.856 165.414C111.6 165.414 77.6336 163.195 55.7419 159.612C44.791 157.82 36.8952 155.692 31.7505 153.347C29.1777 152.175 27.3233 150.962 26.1188 149.736C24.9201 148.515 24.387 147.305 24.387 146.112H23.3203C23.3203 147.657 24.0207 149.121 25.3576 150.483C26.6888 151.839 28.6723 153.117 31.3083 154.318C36.581 156.72 44.5861 158.867 55.5696 160.665C77.5461 164.261 111.581 166.481 159.856 166.481V165.414ZM24.387 146.112C24.387 144.937 24.9687 143.731 26.277 142.502C27.5888 141.272 29.5937 140.054 32.3349 138.88C37.8147 136.533 46.1118 134.404 57.3281 132.611C79.7514 129.028 113.719 126.809 159.856 126.809V125.742C113.696 125.742 79.6639 127.963 57.1598 131.558C45.9125 133.356 37.5144 135.501 31.915 137.9C29.1166 139.099 26.9858 140.374 25.5469 141.725C24.1043 143.08 23.3203 144.547 23.3203 146.112H24.387ZM159.856 166.481C208.131 166.481 242.165 164.261 264.142 160.665C275.125 158.867 283.13 156.72 288.403 154.318C291.039 153.117 293.022 151.839 294.353 150.483C295.691 149.121 296.39 147.657 296.39 146.112H295.324C295.324 147.305 294.791 148.515 293.593 149.736C292.388 150.962 290.533 152.175 287.961 153.347C282.816 155.692 274.921 157.82 263.969 159.612C242.078 163.195 208.111 165.414 159.856 165.414V166.481ZM296.39 146.112C296.39 144.547 295.606 143.08 294.164 141.725C292.725 140.374 290.594 139.099 287.796 137.9C282.196 135.501 273.798 133.356 262.551 131.558C240.047 127.963 206.015 125.742 159.856 125.742V126.809C205.991 126.809 239.959 129.028 262.383 132.611C273.599 134.404 281.897 136.533 287.376 138.88C290.117 140.054 292.123 141.272 293.434 142.502C294.742 143.731 295.324 144.937 295.324 146.112H296.39Z" fill="url(#paint4_linear_1859_75878)"/>
<path d="M147.95 167.896C147.95 127.558 149.359 99.1634 151.632 80.8613C152.769 71.7057 154.119 65.1037 155.606 60.8029C156.351 58.6497 157.118 57.1077 157.886 56.114C158.656 55.1181 159.365 54.7459 160 54.7459V53.6792C158.897 53.6792 157.91 54.338 157.042 55.4617C156.172 56.5876 155.359 58.2536 154.598 60.4543C153.074 64.8614 151.713 71.5509 150.573 80.7299C148.292 99.0969 146.883 127.544 146.883 167.896H147.95ZM160 54.7459C160.612 54.7459 161.321 55.1468 162.101 56.2425C162.875 57.3278 163.645 58.9973 164.39 61.2914C165.881 65.8727 167.231 72.81 168.368 82.1874C170.642 100.933 172.05 129.33 172.05 167.896H173.117C173.117 129.312 171.708 100.867 169.427 82.059C168.287 72.6593 166.927 65.6413 165.405 60.9615C164.645 58.6251 163.836 56.8376 162.971 55.6236C162.113 54.42 161.125 53.6792 160 53.6792V54.7459ZM146.883 167.896C146.883 208.248 148.292 236.693 150.573 255.06C151.713 264.239 153.074 270.929 154.598 275.336C155.359 277.537 156.172 279.203 157.042 280.329C157.91 281.453 158.897 282.111 160 282.111V281.044C159.365 281.044 158.656 280.672 157.886 279.677C157.118 278.683 156.351 277.14 155.606 274.988C154.119 270.687 152.769 264.084 151.632 254.929C149.359 236.627 147.95 208.232 147.95 167.896H146.883ZM160 282.111C161.125 282.111 162.113 281.371 162.971 280.166C163.836 278.953 164.645 277.165 165.405 274.829C166.927 270.149 168.287 263.131 169.427 253.731C171.708 234.923 173.117 206.478 173.117 167.896H172.05C172.05 206.461 170.642 234.857 168.368 253.603C167.231 262.98 165.881 269.918 164.39 274.499C163.645 276.793 162.875 278.463 162.101 279.548C161.321 280.643 160.612 281.044 160 281.044V282.111Z" fill="url(#paint5_linear_1859_75878)"/>
<path d="M161.373 54.2124C141.2 54.2124 124.846 87.2062 124.846 167.895C124.846 248.583 141.199 281.578 161.373 281.578" stroke="url(#paint6_linear_1859_75878)" stroke-width="1.06667" stroke-linecap="round" stroke-linejoin="round"/>
<path d="M25.8855 44.591C26.1143 44.4056 26.1493 44.0697 25.9637 43.8409C25.7781 43.6122 25.4423 43.5772 25.2135 43.7627L25.8855 44.591ZM58.8964 91.1169C59.1909 91.1234 59.4349 90.8899 59.4414 90.5954C59.4479 90.301 59.2144 90.057 58.9199 90.0506L58.8964 91.1169ZM34.3599 71.6382C28.4941 63.3841 25.8581 56.9841 24.9652 52.4478C24.5187 50.1793 24.5106 48.3904 24.7417 47.0736C24.9755 45.7427 25.4419 44.9509 25.8855 44.591L25.2135 43.7627C24.491 44.3488 23.9477 45.4278 23.6912 46.8892C23.4321 48.3647 23.4533 50.2897 23.9186 52.6538C24.8493 57.3823 27.5672 63.9214 33.4903 72.2561L34.3599 71.6382ZM33.4903 72.2561C38.2054 78.8909 43.4848 83.5733 48.1071 86.6115C50.418 88.1305 52.5688 89.2411 54.4075 89.9792C56.2358 90.7133 57.789 91.0926 58.8964 91.1169L58.9199 90.0506C57.9968 90.0302 56.5806 89.7023 54.8049 88.9893C53.0395 88.2805 50.9515 87.2046 48.693 85.7201C44.1766 82.7516 38.995 78.1604 34.3599 71.6382L33.4903 72.2561Z" fill="url(#paint7_linear_1859_75878)"/>
<path d="M25.4503 44.9031C25.6858 44.726 25.7329 44.3917 25.5558 44.1562C25.3788 43.9209 25.0444 43.8737 24.809 44.0509L25.4503 44.9031ZM46.9955 100.738C47.288 100.773 47.5533 100.564 47.5882 100.272C47.6229 99.9792 47.4141 99.7139 47.1216 99.6791L46.9955 100.738ZM22.382 82.8183C16.9103 75.1189 16.2996 66.6789 17.76 59.6201C18.4904 56.0895 19.7379 52.9125 21.1473 50.361C22.5618 47.8004 24.1199 45.9043 25.4503 44.9031L24.809 44.0509C23.3142 45.1757 21.668 47.2122 20.2136 49.8453C18.7541 52.4874 17.4683 55.7651 16.7154 59.404C15.2092 66.6844 15.8324 75.4435 21.5125 83.4363L22.382 82.8183ZM21.5125 83.4363C22.2837 84.5216 25.5667 88.465 30.1783 92.3214C34.7811 96.1702 40.7859 99.9993 46.9955 100.738L47.1216 99.6791C41.2247 98.9774 35.4172 95.3117 30.8626 91.503C26.3168 87.7017 23.0973 83.8248 22.382 82.8183L21.5125 83.4363Z" fill="url(#paint8_linear_1859_75878)"/>
<path d="M8.65363 79.7371C8.65363 96.8909 18.0071 111.86 31.8921 119.823C25.2405 134.376 21.9645 150.596 21.9645 167.696C21.9645 230.591 61.9885 281.576 159.87 281.576C257.751 281.576 297.776 230.591 297.776 167.696C297.776 150.596 294.5 134.376 287.849 119.823C301.733 111.86 311.087 96.8909 311.087 79.7371C311.087 54.2343 290.413 33.5603 264.91 33.5603C245.281 33.5603 228.512 45.8079 221.829 63.0781C204.313 57.118 183.686 53.8159 159.87 53.8159C136.053 53.8159 115.427 57.118 97.9107 63.0781C91.2279 45.8079 74.4594 33.5603 54.8304 33.5603C29.3277 33.5603 8.65363 54.2343 8.65363 79.7371Z" stroke="url(#paint9_linear_1859_75878)" stroke-width="1.06667" stroke-linecap="round" stroke-linejoin="round"/>
<path d="M25.8855 44.591C26.1143 44.4056 26.1493 44.0697 25.9637 43.8409C25.7781 43.6122 25.4423 43.5772 25.2135 43.7627L25.8855 44.591ZM58.8964 91.1169C59.1909 91.1234 59.4349 90.8899 59.4414 90.5954C59.4479 90.301 59.2144 90.057 58.9199 90.0506L58.8964 91.1169ZM34.3599 71.6382C28.4941 63.3841 25.8581 56.9841 24.9652 52.4478C24.5187 50.1793 24.5106 48.3904 24.7417 47.0736C24.9755 45.7427 25.4419 44.9509 25.8855 44.591L25.2135 43.7627C24.491 44.3488 23.9477 45.4278 23.6912 46.8892C23.4321 48.3647 23.4533 50.2897 23.9186 52.6538C24.8493 57.3823 27.5672 63.9214 33.4903 72.2561L34.3599 71.6382ZM33.4903 72.2561C38.2054 78.8909 43.4848 83.5733 48.1071 86.6115C50.418 88.1305 52.5688 89.2411 54.4075 89.9792C56.2358 90.7133 57.789 91.0926 58.8964 91.1169L58.9199 90.0506C57.9968 90.0302 56.5806 89.7023 54.8049 88.9893C53.0395 88.2805 50.9515 87.2046 48.693 85.7201C44.1766 82.7516 38.995 78.1604 34.3599 71.6382L33.4903 72.2561Z" fill="url(#paint10_linear_1859_75878)"/>
<path d="M25.4503 44.9031C25.6858 44.726 25.7329 44.3917 25.5558 44.1562C25.3788 43.9209 25.0444 43.8737 24.809 44.0509L25.4503 44.9031ZM46.9955 100.738C47.288 100.773 47.5533 100.564 47.5882 100.272C47.6229 99.9792 47.4141 99.7139 47.1216 99.6791L46.9955 100.738ZM22.382 82.8183C16.9103 75.1189 16.2996 66.6789 17.76 59.6201C18.4904 56.0895 19.7379 52.9125 21.1473 50.361C22.5618 47.8004 24.1199 45.9043 25.4503 44.9031L24.809 44.0509C23.3142 45.1757 21.668 47.2122 20.2136 49.8453C18.7541 52.4874 17.4683 55.7651 16.7154 59.404C15.2092 66.6844 15.8324 75.4435 21.5125 83.4363L22.382 82.8183ZM21.5125 83.4363C22.2837 84.5216 25.5667 88.465 30.1783 92.3214C34.7811 96.1702 40.7859 99.9993 46.9955 100.738L47.1216 99.6791C41.2247 98.9774 35.4172 95.3117 30.8626 91.503C26.3168 87.7017 23.0973 83.8248 22.382 82.8183L21.5125 83.4363Z" fill="url(#paint11_linear_1859_75878)"/>
<path d="M26.7008 43.7606C26.4885 43.9647 26.1509 43.9581 25.9466 43.7458C25.7425 43.5336 25.7491 43.1959 25.9614 42.9917L26.7008 43.7606ZM68.8108 82.2458C68.7811 82.5389 68.5193 82.7522 68.2263 82.7225C67.9332 82.6926 67.7199 82.431 67.7496 82.1378L68.8108 82.2458ZM52.4995 55.4988C45.0299 48.6618 39.003 45.2584 34.611 43.814C32.4148 43.0918 30.6404 42.8636 29.3052 42.931C27.9556 42.9991 27.1125 43.3646 26.7008 43.7606L25.9614 42.9917C26.632 42.3468 27.7696 41.9405 29.2515 41.8656C30.7477 41.7901 32.6553 42.048 34.9442 42.8007C39.5223 44.3063 45.6773 47.8082 53.2197 54.7119L52.4995 55.4988ZM53.2197 54.7119C59.2239 60.2076 63.2211 66.023 65.6674 70.9841C66.8903 73.4644 67.7279 75.7355 68.2342 77.651C68.7377 79.5558 68.923 81.1438 68.8108 82.2458L67.7496 82.1378C67.8431 81.2192 67.6919 79.7735 67.203 77.9235C66.7168 76.0843 65.9059 73.8798 64.7107 71.4558C62.3205 66.6085 58.4019 60.9013 52.4995 55.4988L53.2197 54.7119Z" fill="url(#paint12_linear_1859_75878)"/>
<path d="M27.0626 43.3664C26.8579 43.5783 26.5202 43.5839 26.3085 43.3792C26.0967 43.1744 26.091 42.8368 26.2957 42.6251L27.0626 43.3664ZM79.8222 71.6187C79.8207 71.9132 79.5808 72.1509 79.2862 72.1494C78.9917 72.148 78.754 71.908 78.7555 71.6135L79.8222 71.6187ZM65.0673 44.987C58.0997 38.6095 49.7989 36.9648 42.6141 37.5455C39.0203 37.8359 35.7141 38.683 33.0086 39.7677C30.2933 40.8564 28.2199 42.1693 27.0626 43.3664L26.2957 42.6251C27.5959 41.2801 29.8196 39.8971 32.6116 38.7776C35.4133 37.6544 38.8243 36.7816 42.5282 36.4823C49.9385 35.8834 58.5544 37.5798 65.7874 44.2002L65.0673 44.987ZM65.7874 44.2002C66.7696 45.0992 70.2791 48.8425 73.5386 53.8936C76.7919 58.9351 79.853 65.3654 79.8222 71.6187L78.7555 71.6135C78.7847 65.6751 75.8615 59.4606 72.6423 54.4719C69.4293 49.4929 65.9781 45.8207 65.0673 44.987L65.7874 44.2002Z" fill="url(#paint13_linear_1859_75878)"/>
<path d="M293.855 44.5598C293.626 44.3743 293.591 44.0384 293.777 43.8096C293.963 43.5809 294.298 43.5459 294.527 43.7314L293.855 44.5598ZM260.844 91.0857C260.549 91.0922 260.305 90.8587 260.299 90.5642C260.292 90.2698 260.526 90.0257 260.82 90.0193L260.844 91.0857ZM285.38 71.6069C291.246 63.3529 293.883 56.9529 294.775 52.4165C295.221 50.1481 295.23 48.3592 294.998 47.0424C294.765 45.7115 294.299 44.9197 293.855 44.5598L294.527 43.7314C295.249 44.3177 295.793 45.3966 296.049 46.8579C296.308 48.3335 296.287 50.2585 295.822 52.6225C294.891 57.351 292.173 63.8901 286.25 72.2249L285.38 71.6069ZM286.25 72.2249C281.535 78.8596 276.256 83.5421 271.633 86.5803C269.323 88.0992 267.171 89.2098 265.333 89.948C263.504 90.682 261.951 91.0613 260.844 91.0857L260.82 90.0193C261.744 89.9989 263.159 89.6711 264.935 88.9581C266.701 88.2493 268.789 87.1733 271.047 85.6889C275.564 82.7203 280.746 78.1292 285.38 71.6069L286.25 72.2249Z" fill="url(#paint14_linear_1859_75878)"/>
<path d="M294.29 44.8677C294.054 44.6906 294.007 44.3563 294.185 44.1209C294.362 43.8856 294.697 43.8383 294.931 44.0154L294.29 44.8677ZM272.746 100.703C272.452 100.738 272.188 100.529 272.153 100.236C272.117 99.9438 272.326 99.6785 272.619 99.6437L272.746 100.703ZM297.359 82.7829C302.83 75.0835 303.441 66.6435 301.981 59.5848C301.25 56.0541 300.003 52.8771 298.593 50.3257C297.179 47.765 295.62 45.8689 294.29 44.8677L294.931 44.0154C296.427 45.1403 298.073 47.1769 299.527 49.8099C300.987 52.4521 302.272 55.7297 303.025 59.3687C304.531 66.649 303.908 75.4081 298.228 83.4009L297.359 82.7829ZM298.228 83.4009C297.457 84.4862 294.174 88.4297 289.563 92.286C284.959 96.1348 278.955 99.964 272.746 100.703L272.619 99.6437C278.516 98.942 284.323 95.2763 288.878 91.4676C293.424 87.6664 296.643 83.7895 297.359 82.7829L298.228 83.4009Z" fill="url(#paint15_linear_1859_75878)"/>
<path d="M293.04 43.7274C293.252 43.9315 293.589 43.9249 293.794 43.7126C293.998 43.5003 293.991 43.1627 293.779 42.9585L293.04 43.7274ZM250.93 82.2126C250.96 82.5056 251.221 82.719 251.515 82.6892C251.807 82.6594 252.02 82.3977 251.991 82.1046L250.93 82.2126ZM267.242 55.4655C274.71 48.6286 280.737 45.2251 285.13 43.7807C287.326 43.0585 289.1 42.8303 290.435 42.8977C291.785 42.9659 292.628 43.3314 293.04 43.7274L293.779 42.9585C293.108 42.3136 291.971 41.9072 290.49 41.8324C288.993 41.7569 287.085 42.0147 284.797 42.7675C280.219 44.273 274.063 47.7749 266.521 54.6787L267.242 55.4655ZM266.521 54.6787C260.516 60.1743 256.519 65.9898 254.074 70.9508C252.85 73.431 252.013 75.7022 251.506 77.6177C251.003 79.5226 250.818 81.1106 250.93 82.2126L251.991 82.1046C251.898 81.186 252.049 79.7403 252.538 77.8904C253.024 76.0511 253.835 73.8465 255.03 71.4226C257.42 66.5753 261.339 60.8679 267.242 55.4655L266.521 54.6787Z" fill="url(#paint16_linear_1859_75878)"/>
<path d="M292.677 43.3333C292.882 43.545 293.22 43.5508 293.432 43.346C293.644 43.1413 293.649 42.8037 293.444 42.5918L292.677 43.3333ZM239.918 71.5854C239.92 71.88 240.16 72.1176 240.454 72.1162C240.749 72.1147 240.987 71.8748 240.985 71.5802L239.918 71.5854ZM254.673 44.9539C261.641 38.5764 269.941 36.9317 277.126 37.5123C280.72 37.8027 284.027 38.6499 286.732 39.7345C289.447 40.8231 291.52 42.1361 292.677 43.3333L293.444 42.5918C292.144 41.2469 289.921 39.8638 287.129 38.7445C284.328 37.6212 280.916 36.7484 277.212 36.4491C269.802 35.8502 261.186 37.5465 253.953 44.167L254.673 44.9539ZM253.953 44.167C252.971 45.066 249.461 48.8092 246.202 53.8603C242.948 58.9018 239.887 65.3322 239.918 71.5854L240.985 71.5802C240.956 65.6419 243.878 59.4273 247.098 54.4388C250.311 49.4597 253.762 45.7876 254.673 44.9539L253.953 44.167Z" fill="url(#paint17_linear_1859_75878)"/>
<path d="M161.373 54.2124C126.337 54.2124 97.9348 87.2062 97.9348 167.895C97.9348 248.583 126.337 281.578 161.373 281.578" stroke="url(#paint18_linear_1859_75878)" stroke-width="1.06667" stroke-linecap="round" stroke-linejoin="round"/>
<path d="M161.373 54.2124C110.71 54.2124 69.6409 87.2062 69.6409 167.895C69.6409 248.583 110.71 281.578 161.373 281.578" stroke="url(#paint19_linear_1859_75878)" stroke-width="1.06667" stroke-linecap="round" stroke-linejoin="round"/>
<path d="M161.373 54.2124C96.4521 54.2124 43.8235 87.2062 43.8235 167.895C43.8235 248.583 96.4521 281.578 161.373 281.578" stroke="url(#paint20_linear_1859_75878)" stroke-width="1.06667" stroke-linecap="round" stroke-linejoin="round"/>
<path d="M158.627 54.2124C178.8 54.2124 195.154 87.2062 195.154 167.895C195.154 248.583 178.801 281.578 158.627 281.578" stroke="url(#paint21_linear_1859_75878)" stroke-width="1.06667" stroke-linecap="round" stroke-linejoin="round"/>
<path d="M158.627 54.2124C193.663 54.2124 222.065 87.2062 222.065 167.895C222.065 248.583 193.663 281.578 158.627 281.578" stroke="url(#paint22_linear_1859_75878)" stroke-width="1.06667" stroke-linecap="round" stroke-linejoin="round"/>
<path d="M158.627 54.2124C209.29 54.2124 250.359 87.2062 250.359 167.895C250.359 248.583 209.29 281.578 158.627 281.578" stroke="url(#paint23_linear_1859_75878)" stroke-width="1.06667" stroke-linecap="round" stroke-linejoin="round"/>
<path d="M158.627 54.2124C223.548 54.2124 276.177 87.2062 276.177 167.895C276.177 248.583 223.548 281.578 158.627 281.578" stroke="url(#paint24_linear_1859_75878)" stroke-width="1.06667" stroke-linecap="round" stroke-linejoin="round"/>
<path d="M160 137.925C114.672 137.925 82.7691 135.704 62.2099 132.123C51.9256 130.332 44.5144 128.205 39.6878 125.863C34.819 123.502 32.7782 121.025 32.7782 118.622H31.7115C31.7115 121.697 34.3054 124.438 39.2223 126.823C44.1816 129.229 51.7072 131.376 62.0269 133.174C82.6761 136.771 114.651 138.992 160 138.992V137.925ZM32.7782 118.622C32.7782 117.435 33.3304 116.226 34.5553 115.002C35.7849 113.773 37.6643 112.559 40.2359 111.386C45.3774 109.041 53.1659 106.913 63.6999 105.121C84.7584 101.539 116.663 99.3186 160 99.3186V98.252C116.638 98.252 84.6653 100.473 63.521 104.07C52.9535 105.867 45.0591 108.014 39.7933 110.415C37.1611 111.616 35.1556 112.893 33.8013 114.247C32.4423 115.605 31.7115 117.07 31.7115 118.622H32.7782ZM160 138.992C205.349 138.992 237.324 136.771 257.972 133.174C268.292 131.376 275.818 129.229 280.778 126.823C285.694 124.438 288.288 121.697 288.288 118.622H287.221C287.221 121.025 285.181 123.502 280.311 125.863C275.485 128.205 268.074 130.332 257.79 132.123C237.231 135.704 205.328 137.925 160 137.925V138.992ZM288.288 118.622C288.288 117.07 287.557 115.605 286.198 114.247C284.844 112.893 282.838 111.616 280.206 110.415C274.941 108.014 267.046 105.867 256.479 104.07C235.334 100.473 203.361 98.252 160 98.252V99.3186C203.337 99.3186 235.242 101.539 256.3 105.121C266.834 106.913 274.622 109.041 279.763 111.386C282.335 112.559 284.214 113.773 285.444 115.002C286.669 116.226 287.221 117.435 287.221 118.622H288.288Z" fill="url(#paint25_linear_1859_75878)"/>
<path d="M159.542 109.433C124.882 109.433 100.501 107.26 84.7996 103.759C76.9449 102.008 71.3002 99.933 67.632 97.6565C63.9577 95.3761 62.3698 92.9645 62.3698 90.5537H61.3032C61.3032 93.5032 63.2599 96.1984 67.0696 98.5627C70.8856 100.931 76.6643 103.039 84.5675 104.801C100.382 108.326 124.853 110.499 159.542 110.499V109.433ZM62.3698 90.5537C62.3698 88.165 64.1186 85.751 68.0475 83.4583C71.9571 81.1768 77.8916 79.1 85.938 77.3485C102.022 73.8473 126.405 71.6751 159.542 71.6751V70.6084C126.373 70.6084 101.903 72.7816 85.7112 76.3062C77.6194 78.0676 71.5598 80.1736 67.5099 82.537C63.4793 84.8892 61.3032 87.5818 61.3032 90.5537H62.3698ZM159.542 110.499C194.23 110.499 218.703 108.326 234.517 104.801C242.42 103.039 248.2 100.931 252.015 98.5627C255.825 96.1984 257.781 93.5032 257.781 90.5537H256.715C256.715 92.9645 255.127 95.3761 251.453 97.6565C247.785 99.933 242.14 102.008 234.285 103.759C218.583 107.26 194.203 109.433 159.542 109.433V110.499ZM257.781 90.5537C257.781 87.5818 255.605 84.8892 251.574 82.537C247.525 80.1736 241.466 78.0676 233.374 76.3062C217.182 72.7816 192.711 70.6084 159.542 70.6084V71.6751C192.679 71.6751 217.062 73.8473 233.147 77.3485C241.193 79.1 247.127 81.1768 251.037 83.4583C254.966 85.751 256.715 88.165 256.715 90.5537H257.781Z" fill="url(#paint26_linear_1859_75878)"/>
<path d="M61.718 87.3936C49.3723 98.1095 40.0532 104.889 33.4389 108.528C30.128 110.35 27.5281 111.366 25.5856 111.71C23.6315 112.056 22.4789 111.704 21.862 110.994L21.0564 111.693C22.0389 112.826 23.6732 113.133 25.7717 112.76C27.8819 112.387 30.6007 111.308 33.9532 109.462C40.6655 105.77 50.0511 98.9328 62.4172 88.1991L61.718 87.3936ZM21.862 110.994C21.2596 110.3 21.1165 109.069 21.8243 107.088C22.5229 105.133 23.9986 102.61 26.3364 99.5281C31.0067 93.3715 39.0311 85.0974 50.8332 74.8534L50.134 74.0479C38.3085 84.3122 30.2213 92.6419 25.4866 98.8835C23.1219 102.001 21.5718 104.625 20.8199 106.728C20.0773 108.806 20.0593 110.545 21.0564 111.693L21.862 110.994ZM62.4172 88.1991C74.7831 77.4656 82.872 69.1347 87.4726 63.0085C89.7703 59.9489 91.2213 57.4089 91.8883 55.3722C92.5516 53.3467 92.4771 51.6856 91.4947 50.5537L90.6892 51.2529C91.306 51.9636 91.4923 53.1542 90.8746 55.0403C90.2606 56.9151 88.889 59.3462 86.6197 62.368C82.0863 68.4047 74.0636 76.6777 61.718 87.3936L62.4172 88.1991ZM91.4947 50.5537C90.4976 49.4049 88.7744 49.1784 86.6129 49.6213C84.424 50.0698 81.6079 51.2355 78.1891 53.1383C71.3437 56.9481 61.9594 63.7834 50.134 74.0479L50.8332 74.8534C62.6351 64.6094 71.9556 57.8283 78.7078 54.0704C82.0879 52.1891 84.7937 51.0829 86.827 50.6663C88.8876 50.244 90.0868 50.559 90.6892 51.2529L91.4947 50.5537Z" fill="url(#paint27_linear_1859_75878)"/>
<path d="M52.5663 77.0464C40.6293 87.4076 31.599 93.9364 25.1722 97.4142C21.955 99.155 19.424 100.113 17.5275 100.42C15.6234 100.728 14.4836 100.366 13.8609 99.6482L13.0554 100.347C14.0321 101.473 15.6373 101.806 17.6979 101.472C19.766 101.138 22.4192 100.117 25.6798 98.3523C32.2083 94.8195 41.3074 88.2314 53.2655 77.8519L52.5663 77.0464ZM13.8609 99.6482C13.2527 98.9475 13.0964 97.7286 13.7558 95.7954C14.408 93.8836 15.8127 91.4229 18.0552 88.4244C22.5346 82.4344 30.2704 74.4109 41.6815 64.5061L40.9823 63.7006C29.5469 73.6264 21.7464 81.7074 17.2009 87.7856C14.9308 90.8212 13.4509 93.3857 12.7464 95.451C12.0492 97.4949 12.0641 99.2054 13.0554 100.347L13.8609 99.6482ZM53.2655 77.8519C65.2236 67.4724 73.0259 59.3903 77.4417 53.4234C79.6472 50.4434 81.0312 47.9602 81.6534 45.9598C82.2734 43.9666 82.1692 42.3303 81.1924 41.2051L80.3869 41.9043C81.0096 42.6217 81.2078 43.801 80.6349 45.643C80.0643 47.4774 78.7603 49.8486 76.5843 52.7889C72.2372 58.6628 64.5033 66.6852 52.5663 77.0464L53.2655 77.8519ZM81.1924 41.2051C80.2013 40.0631 78.5099 39.8078 76.3883 40.2105C74.2443 40.6176 71.4973 41.7221 68.1726 43.5428C61.5155 47.1882 52.4178 53.7747 40.9823 63.7006L41.6815 64.5061C53.0927 54.6014 62.1244 48.0709 68.6849 44.4784C71.969 42.68 74.6027 41.6353 76.5872 41.2585C78.594 40.8775 79.7788 41.2036 80.3869 41.9043L81.1924 41.2051Z" fill="url(#paint28_linear_1859_75878)"/>
<path d="M44.1547 67.2633C33.9054 76.1595 26.0681 81.653 20.4162 84.4636C17.5875 85.8702 15.3414 86.5869 13.6351 86.7413C11.9347 86.8952 10.8473 86.4882 10.1995 85.742L9.39394 86.4412C10.3456 87.5375 11.8307 87.9756 13.7312 87.8037C15.6257 87.6321 18.0083 86.8523 20.8912 85.4187C26.6626 82.5487 34.5796 76.9868 44.8539 68.0688L44.1547 67.2633ZM10.1995 85.742C9.5655 85.0115 9.35297 83.8443 9.81615 82.105C10.2782 80.3701 11.3901 78.1693 13.238 75.5159C16.9295 70.215 23.4728 63.2268 33.2699 54.723L32.5707 53.9175C22.7448 62.4462 16.1268 69.501 12.3627 74.9064C10.4826 77.606 9.29307 79.9242 8.78541 81.8305C8.27889 83.7325 8.4285 85.3289 9.39394 86.4412L10.1995 85.742ZM44.8539 68.0688C55.1281 59.151 61.7482 52.0947 65.4013 46.7845C67.2262 44.1318 68.3334 41.8826 68.7695 40.031C69.2071 38.1736 68.9822 36.6416 68.0305 35.5452L67.2251 36.2444C67.8728 36.9906 68.1227 38.1246 67.7312 39.7864C67.3385 41.454 66.313 43.5771 64.5225 46.1799C60.945 51.3803 54.4039 58.3671 44.1547 67.2633L44.8539 68.0688ZM68.0305 35.5452C67.0651 34.433 65.5056 34.0603 63.5513 34.2943C61.5926 34.5288 59.1302 35.3805 56.1929 36.8622C50.3119 39.8288 42.3965 45.3888 32.5707 53.9175L33.2699 54.723C43.067 46.2192 50.9058 40.7239 56.6733 37.8145C59.5602 36.3582 61.8955 35.5669 63.6781 35.3534C65.4652 35.1394 66.5911 35.514 67.2251 36.2444L68.0305 35.5452Z" fill="url(#paint29_linear_1859_75878)"/>
<path d="M258.282 87.3936C270.627 98.1095 279.947 104.889 286.561 108.528C289.872 110.35 292.472 111.366 294.414 111.71C296.369 112.056 297.521 111.704 298.138 110.994L298.944 111.693C297.962 112.826 296.326 113.133 294.228 112.76C292.118 112.387 289.4 111.308 286.047 109.462C279.334 105.77 269.949 98.9328 257.583 88.1991L258.282 87.3936ZM298.138 110.994C298.74 110.3 298.883 109.069 298.176 107.088C297.477 105.133 296.001 102.61 293.664 99.5281C288.993 93.3715 280.969 85.0974 269.167 74.8534L269.866 74.0479C281.692 84.3122 289.778 92.6419 294.513 98.8835C296.878 102.001 298.428 104.625 299.18 106.728C299.922 108.806 299.94 110.545 298.944 111.693L298.138 110.994ZM257.583 88.1991C245.217 77.4656 237.128 69.1347 232.527 63.0085C230.229 59.9489 228.779 57.4089 228.112 55.3722C227.449 53.3467 227.523 51.6856 228.506 50.5537L229.311 51.2529C228.694 51.9636 228.508 53.1542 229.125 55.0403C229.74 56.9151 231.112 59.3462 233.38 62.368C237.914 68.4047 245.936 76.6777 258.282 87.3936L257.583 88.1991ZM228.506 50.5537C229.503 49.4049 231.226 49.1784 233.387 49.6213C235.576 50.0698 238.393 51.2355 241.811 53.1383C248.656 56.9481 258.041 63.7834 269.866 74.0479L269.167 74.8534C257.365 64.6094 248.045 57.8283 241.292 54.0704C237.913 52.1891 235.206 51.0829 233.173 50.6663C231.113 50.244 229.914 50.559 229.311 51.2529L228.506 50.5537Z" fill="url(#paint30_linear_1859_75878)"/>
<path d="M267.434 77.0464C279.371 87.4076 288.401 93.9364 294.828 97.4142C298.045 99.155 300.576 100.113 302.473 100.42C304.377 100.728 305.517 100.366 306.139 99.6482L306.945 100.347C305.968 101.473 304.363 101.806 302.302 101.472C300.234 101.138 297.581 100.117 294.32 98.3523C287.792 94.8195 278.692 88.2314 266.735 77.8519L267.434 77.0464ZM306.139 99.6482C306.748 98.9475 306.903 97.7286 306.244 95.7954C305.591 93.8836 304.188 91.4229 301.945 88.4244C297.466 82.4344 289.73 74.4109 278.319 64.5061L279.018 63.7006C290.453 73.6264 298.254 81.7074 302.799 87.7856C305.069 90.8212 306.549 93.3857 307.253 95.451C307.951 97.4949 307.936 99.2054 306.945 100.347L306.139 99.6482ZM266.735 77.8519C254.777 67.4724 246.974 59.3903 242.558 53.4234C240.353 50.4434 238.969 47.9602 238.347 45.9598C237.727 43.9666 237.83 42.3303 238.807 41.2051L239.613 41.9043C238.99 42.6217 238.793 43.801 239.365 45.643C239.936 47.4774 241.239 49.8486 243.415 52.7889C247.763 58.6628 255.497 66.6852 267.434 77.0464L266.735 77.8519ZM238.807 41.2051C239.798 40.0631 241.49 39.8078 243.612 40.2105C245.756 40.6176 248.502 41.7221 251.827 43.5428C258.484 47.1882 267.582 53.7747 279.018 63.7006L278.319 64.5061C266.908 54.6014 257.875 48.0709 251.315 44.4784C248.031 42.68 245.397 41.6353 243.413 41.2585C241.406 40.8775 240.221 41.2036 239.613 41.9043L238.807 41.2051Z" fill="url(#paint31_linear_1859_75878)"/>
<path d="M275.845 67.2633C286.095 76.1595 293.932 81.653 299.584 84.4636C302.413 85.8702 304.658 86.5869 306.365 86.7413C308.065 86.8952 309.153 86.4882 309.8 85.742L310.606 86.4412C309.654 87.5375 308.17 87.9756 306.269 87.8037C304.374 87.6321 301.991 86.8523 299.108 85.4187C293.338 82.5487 285.421 76.9868 275.147 68.0688L275.845 67.2633ZM309.8 85.742C310.434 85.0115 310.647 83.8443 310.183 82.105C309.722 80.3701 308.61 78.1693 306.762 75.5159C303.071 70.215 296.527 63.2268 286.731 54.723L287.429 53.9175C297.255 62.4462 303.873 69.501 307.637 74.9064C309.518 77.606 310.707 79.9242 311.215 81.8305C311.722 83.7325 311.571 85.3289 310.606 86.4412L309.8 85.742ZM275.147 68.0688C264.871 59.151 258.252 52.0947 254.598 46.7845C252.774 44.1318 251.667 41.8826 251.231 40.031C250.793 38.1736 251.018 36.6416 251.969 35.5452L252.775 36.2444C252.127 36.9906 251.877 38.1246 252.269 39.7864C252.661 41.454 253.687 43.5771 255.477 46.1799C259.055 51.3803 265.596 58.3671 275.845 67.2633L275.147 68.0688ZM251.969 35.5452C252.934 34.433 254.494 34.0603 256.449 34.2943C258.407 34.5288 260.87 35.3805 263.807 36.8622C269.689 39.8288 277.603 45.3888 287.429 53.9175L286.731 54.723C276.933 46.2192 269.094 40.7239 263.327 37.8145C260.439 36.3582 258.105 35.5669 256.322 35.3534C254.534 35.1394 253.409 35.514 252.775 36.2444L251.969 35.5452Z" fill="url(#paint32_linear_1859_75878)"/>
<defs>
<linearGradient id="paint0_linear_1859_75878" x1="159.87" y1="33.5603" x2="159.87" y2="281.576" gradientUnits="userSpaceOnUse">
<stop stop-color="#5BF0E7"/>
<stop offset="1" stop-color="#2B75BD"/>
</linearGradient>
<linearGradient id="paint1_linear_1859_75878" x1="159.87" y1="210.437" x2="159.87" y2="251.178" gradientUnits="userSpaceOnUse">
<stop stop-color="#5BF0E7"/>
<stop offset="1" stop-color="#2B75BD"/>
</linearGradient>
<linearGradient id="paint2_linear_1859_75878" x1="159.855" y1="181.725" x2="159.855" y2="222.465" gradientUnits="userSpaceOnUse">
<stop stop-color="#5BF0E7"/>
<stop offset="1" stop-color="#2B75BD"/>
</linearGradient>
<linearGradient id="paint3_linear_1859_75878" x1="159.855" y1="152.505" x2="159.855" y2="193.244" gradientUnits="userSpaceOnUse">
<stop stop-color="#5BF0E7"/>
<stop offset="1" stop-color="#2B75BD"/>
</linearGradient>
<linearGradient id="paint4_linear_1859_75878" x1="159.855" y1="125.742" x2="159.855" y2="166.481" gradientUnits="userSpaceOnUse">
<stop stop-color="#5BF0E7"/>
<stop offset="1" stop-color="#2B75BD"/>
</linearGradient>
<linearGradient id="paint5_linear_1859_75878" x1="160" y1="53.6792" x2="160" y2="282.111" gradientUnits="userSpaceOnUse">
<stop stop-color="#5BF0E7"/>
<stop offset="1" stop-color="#2B75BD"/>
</linearGradient>
<linearGradient id="paint6_linear_1859_75878" x1="143.109" y1="54.2124" x2="143.109" y2="281.578" gradientUnits="userSpaceOnUse">
<stop stop-color="#5BF0E7"/>
<stop offset="1" stop-color="#2B75BD"/>
</linearGradient>
<linearGradient id="paint7_linear_1859_75878" x1="41.4833" y1="43.6436" x2="41.4833" y2="91.1171" gradientUnits="userSpaceOnUse">
<stop stop-color="#5BF0E7"/>
<stop offset="1" stop-color="#2B75BD"/>
</linearGradient>
<linearGradient id="paint8_linear_1859_75878" x1="31.8027" y1="43.9436" x2="31.8027" y2="100.742" gradientUnits="userSpaceOnUse">
<stop stop-color="#5BF0E7"/>
<stop offset="1" stop-color="#2B75BD"/>
</linearGradient>
<linearGradient id="paint9_linear_1859_75878" x1="159.87" y1="33.5603" x2="159.87" y2="281.576" gradientUnits="userSpaceOnUse">
<stop stop-color="#5BF0E7"/>
<stop offset="1" stop-color="#2B75BD"/>
</linearGradient>
<linearGradient id="paint10_linear_1859_75878" x1="41.4833" y1="43.6436" x2="41.4833" y2="91.1171" gradientUnits="userSpaceOnUse">
<stop stop-color="#5BF0E7"/>
<stop offset="1" stop-color="#2B75BD"/>
</linearGradient>
<linearGradient id="paint11_linear_1859_75878" x1="31.8027" y1="43.9436" x2="31.8027" y2="100.742" gradientUnits="userSpaceOnUse">
<stop stop-color="#5BF0E7"/>
<stop offset="1" stop-color="#2B75BD"/>
</linearGradient>
<linearGradient id="paint12_linear_1859_75878" x1="47.3201" y1="41.853" x2="47.3201" y2="82.7253" gradientUnits="userSpaceOnUse">
<stop stop-color="#5BF0E7"/>
<stop offset="1" stop-color="#2B75BD"/>
</linearGradient>
<linearGradient id="paint13_linear_1859_75878" x1="52.9841" y1="36.3704" x2="52.9841" y2="72.1494" gradientUnits="userSpaceOnUse">
<stop stop-color="#5BF0E7"/>
<stop offset="1" stop-color="#2B75BD"/>
</linearGradient>
<linearGradient id="paint14_linear_1859_75878" x1="278.257" y1="43.6123" x2="278.257" y2="91.0858" gradientUnits="userSpaceOnUse">
<stop stop-color="#5BF0E7"/>
<stop offset="1" stop-color="#2B75BD"/>
</linearGradient>
<linearGradient id="paint15_linear_1859_75878" x1="287.938" y1="43.9082" x2="287.938" y2="100.707" gradientUnits="userSpaceOnUse">
<stop stop-color="#5BF0E7"/>
<stop offset="1" stop-color="#2B75BD"/>
</linearGradient>
<linearGradient id="paint16_linear_1859_75878" x1="272.421" y1="41.8198" x2="272.421" y2="82.692" gradientUnits="userSpaceOnUse">
<stop stop-color="#5BF0E7"/>
<stop offset="1" stop-color="#2B75BD"/>
</linearGradient>
<linearGradient id="paint17_linear_1859_75878" x1="266.756" y1="36.3372" x2="266.756" y2="72.1162" gradientUnits="userSpaceOnUse">
<stop stop-color="#5BF0E7"/>
<stop offset="1" stop-color="#2B75BD"/>
</linearGradient>
<linearGradient id="paint18_linear_1859_75878" x1="129.654" y1="54.2124" x2="129.654" y2="281.578" gradientUnits="userSpaceOnUse">
<stop stop-color="#5BF0E7"/>
<stop offset="1" stop-color="#2B75BD"/>
</linearGradient>
<linearGradient id="paint19_linear_1859_75878" x1="115.507" y1="54.2124" x2="115.507" y2="281.578" gradientUnits="userSpaceOnUse">
<stop stop-color="#5BF0E7"/>
<stop offset="1" stop-color="#2B75BD"/>
</linearGradient>
<linearGradient id="paint20_linear_1859_75878" x1="102.598" y1="54.2124" x2="102.598" y2="281.578" gradientUnits="userSpaceOnUse">
<stop stop-color="#5BF0E7"/>
<stop offset="1" stop-color="#2B75BD"/>
</linearGradient>
<linearGradient id="paint21_linear_1859_75878" x1="176.891" y1="54.2124" x2="176.891" y2="281.578" gradientUnits="userSpaceOnUse">
<stop stop-color="#5BF0E7"/>
<stop offset="1" stop-color="#2B75BD"/>
</linearGradient>
<linearGradient id="paint22_linear_1859_75878" x1="190.346" y1="54.2124" x2="190.346" y2="281.578" gradientUnits="userSpaceOnUse">
<stop stop-color="#5BF0E7"/>
<stop offset="1" stop-color="#2B75BD"/>
</linearGradient>
<linearGradient id="paint23_linear_1859_75878" x1="204.493" y1="54.2124" x2="204.493" y2="281.578" gradientUnits="userSpaceOnUse">
<stop stop-color="#5BF0E7"/>
<stop offset="1" stop-color="#2B75BD"/>
</linearGradient>
<linearGradient id="paint24_linear_1859_75878" x1="217.402" y1="54.2124" x2="217.402" y2="281.578" gradientUnits="userSpaceOnUse">
<stop stop-color="#5BF0E7"/>
<stop offset="1" stop-color="#2B75BD"/>
</linearGradient>
<linearGradient id="paint25_linear_1859_75878" x1="160" y1="98.252" x2="160" y2="138.992" gradientUnits="userSpaceOnUse">
<stop stop-color="#5BF0E7"/>
<stop offset="1" stop-color="#2B75BD"/>
</linearGradient>
<linearGradient id="paint26_linear_1859_75878" x1="159.542" y1="70.6084" x2="159.542" y2="110.499" gradientUnits="userSpaceOnUse">
<stop stop-color="#5BF0E7"/>
<stop offset="1" stop-color="#2B75BD"/>
</linearGradient>
<linearGradient id="paint27_linear_1859_75878" x1="56.3022" y1="49.4099" x2="56.3022" y2="112.911" gradientUnits="userSpaceOnUse">
<stop stop-color="#5BF0E7"/>
<stop offset="1" stop-color="#2B75BD"/>
</linearGradient>
<linearGradient id="paint28_linear_1859_75878" x1="47.1512" y1="40.0317" x2="47.1512" y2="101.596" gradientUnits="userSpaceOnUse">
<stop stop-color="#5BF0E7"/>
<stop offset="1" stop-color="#2B75BD"/>
</linearGradient>
<linearGradient id="paint29_linear_1859_75878" x1="38.7424" y1="34.2275" x2="38.7424" y2="87.8399" gradientUnits="userSpaceOnUse">
<stop stop-color="#5BF0E7"/>
<stop offset="1" stop-color="#2B75BD"/>
</linearGradient>
<linearGradient id="paint30_linear_1859_75878" x1="263.698" y1="49.4099" x2="263.698" y2="112.911" gradientUnits="userSpaceOnUse">
<stop stop-color="#5BF0E7"/>
<stop offset="1" stop-color="#2B75BD"/>
</linearGradient>
<linearGradient id="paint31_linear_1859_75878" x1="272.849" y1="40.0317" x2="272.849" y2="101.596" gradientUnits="userSpaceOnUse">
<stop stop-color="#5BF0E7"/>
<stop offset="1" stop-color="#2B75BD"/>
</linearGradient>
<linearGradient id="paint32_linear_1859_75878" x1="281.258" y1="34.2275" x2="281.258" y2="87.8399" gradientUnits="userSpaceOnUse">
<stop stop-color="#5BF0E7"/>
<stop offset="1" stop-color="#2B75BD"/>
</linearGradient>
</defs>
</svg>
