<svg width="320" height="320" viewBox="0 0 320 320" fill="none" xmlns="http://www.w3.org/2000/svg">
<path d="M279.241 70.5857L308.668 146.711L303.55 214.521L249.814 284.891L160.254 311.119L103.319 304.082L39.3475 254.184L11.2 203.647V107.049L67.495 34.7616L152.577 8.5332L212.07 17.4893L279.241 70.5857ZM279.241 70.5857L262.608 133.278L279.241 218.359L249.814 282.971M212.71 17.4893L206.954 55.8722M206.954 55.8722L184.563 126.881L206.954 204.926L212.71 272.736M206.954 55.8722L262.608 132.638L185.842 125.601M212.71 272.736L159.295 310.479M212.71 272.736L134.666 261.22L206.954 204.286L118.672 173.58L183.923 126.241L118.672 81.4605L206.954 56.5116M159.614 309.84L135.305 262.017L118.033 174.66V80.2894L130.827 15.2502L211.751 18.7686M68.1348 34.7612L41.2668 135.837L61.098 217.08L68.1348 276.574L13.1189 206.206M278.602 69.9457L205.674 55.2323L131.467 14.9301L61.7375 60.35L11.8397 106.41M61.7376 60.9895L117.393 81.4605L41.9065 133.917L117.393 174.22L61.7376 219.639L134.666 260.581L68.7745 276.894L159.294 309.839M11.8397 107.049L41.2666 135.197L11.8397 203.647L60.458 218.999M263.888 132.638L307.389 147.351L279.881 218.999L302.271 215.161M262.608 133.918L206.954 202.367L279.242 218.999L212.071 272.736L250.454 284.891" stroke="url(#paint0_linear_1859_75876)" stroke-width="1.06667" stroke-linecap="round" stroke-linejoin="round"/>
<defs>
<linearGradient id="paint0_linear_1859_75876" x1="159.934" y1="8.5332" x2="159.934" y2="311.119" gradientUnits="userSpaceOnUse">
<stop stop-color="#5BF0E7"/>
<stop offset="1" stop-color="#2B75BD"/>
</linearGradient>
</defs>
</svg>
