<svg width="320" height="320" viewBox="0 0 320 320" fill="none" xmlns="http://www.w3.org/2000/svg">
<path d="M159.511 314.178C244.662 314.178 313.69 245.15 313.69 160C313.69 74.8497 244.662 5.82178 159.511 5.82178C74.3612 5.82178 5.33333 74.8497 5.33333 160C5.33333 245.15 74.3612 314.178 159.511 314.178Z" stroke="url(#paint0_linear_1859_75912)" stroke-width="1.06667" stroke-linecap="round" stroke-linejoin="round"/>
<path d="M159.511 59.0325C182.382 59.0325 200.923 49.3638 200.923 37.4368C200.923 25.5098 182.382 15.8411 159.511 15.8411C136.641 15.8411 118.1 25.5098 118.1 37.4368C118.1 49.3638 136.641 59.0325 159.511 59.0325Z" stroke="url(#paint1_linear_1859_75912)" stroke-width="1.06667" stroke-linecap="round" stroke-linejoin="round"/>
<path d="M263.113 45.8157C267.033 52.466 269.162 59.6101 269.162 67.0475C269.162 102.756 220.069 131.703 159.511 131.703C98.9531 131.703 49.8609 102.756 49.8609 67.0475C49.8609 59.6102 51.9906 52.4662 55.9099 45.816" stroke="url(#paint2_linear_1859_75912)" stroke-width="1.06667" stroke-linecap="round" stroke-linejoin="round"/>
<path d="M310.011 126.359C310.011 175.47 242.629 215.282 159.51 215.282C76.3916 215.282 9.01041 175.47 9.01041 126.359" stroke="url(#paint3_linear_1859_75912)" stroke-width="1.06667" stroke-linecap="round" stroke-linejoin="round"/>
<path d="M298.693 226.41C272.78 256.439 220.181 276.988 159.511 276.988C98.8414 276.988 46.2428 256.439 20.3292 226.408" stroke="url(#paint4_linear_1859_75912)" stroke-width="1.06667" stroke-linecap="round" stroke-linejoin="round"/>
<path d="M159.622 36.5322C139.14 74.0253 106.19 179.994 130.235 311.332" stroke="url(#paint5_linear_1859_75912)" stroke-width="1.06667" stroke-linecap="round" stroke-linejoin="round"/>
<path d="M159.627 35.699C96.2272 68.8318 33.4771 169.74 61.7322 279.266" stroke="url(#paint6_linear_1859_75912)" stroke-width="1.06667" stroke-linecap="round" stroke-linejoin="round"/>
<path d="M159.619 35.6071C101.481 27.9095 -15.7675 128.337 17.5597 220.17" stroke="url(#paint7_linear_1859_75912)" stroke-width="1.06667" stroke-linecap="round" stroke-linejoin="round"/>
<path d="M159.621 35.0318C112.411 20.399 66.114 42.4524 37.4437 65.8378" stroke="url(#paint8_linear_1859_75912)" stroke-width="1.06667" stroke-linecap="round" stroke-linejoin="round"/>
<path d="M159.622 35.0322C135.471 20.0291 120.582 17.3514 94.7771 20.0289" stroke="url(#paint9_linear_1859_75912)" stroke-width="1.06667" stroke-linecap="round" stroke-linejoin="round"/>
<path d="M159.622 35.0318C154.603 24.1343 143.892 16.4992 130.506 8.53223" stroke="url(#paint10_linear_1859_75912)" stroke-width="1.06667" stroke-linecap="round" stroke-linejoin="round"/>
<path d="M159.622 35.032C159.622 24.956 155.941 13.8433 151.59 5.99902" stroke="url(#paint11_linear_1859_75912)" stroke-width="1.06667" stroke-linecap="round" stroke-linejoin="round"/>
<path d="M159.401 36.5322C179.883 74.0253 212.833 179.994 188.788 311.332" stroke="url(#paint12_linear_1859_75912)" stroke-width="1.06667" stroke-linecap="round" stroke-linejoin="round"/>
<path d="M159.396 35.699C222.796 68.8318 285.546 169.74 257.291 279.266" stroke="url(#paint13_linear_1859_75912)" stroke-width="1.06667" stroke-linecap="round" stroke-linejoin="round"/>
<path d="M159.404 35.6071C217.542 27.9095 334.79 128.337 301.463 220.17" stroke="url(#paint14_linear_1859_75912)" stroke-width="1.06667" stroke-linecap="round" stroke-linejoin="round"/>
<path d="M159.402 35.0318C206.612 20.399 252.909 42.4524 281.579 65.8378" stroke="url(#paint15_linear_1859_75912)" stroke-width="1.06667" stroke-linecap="round" stroke-linejoin="round"/>
<path d="M159.401 35.0322C183.552 20.0291 198.441 17.3514 224.245 20.0289" stroke="url(#paint16_linear_1859_75912)" stroke-width="1.06667" stroke-linecap="round" stroke-linejoin="round"/>
<path d="M159.401 35.0318C164.42 24.1343 175.131 16.4992 188.517 8.53223" stroke="url(#paint17_linear_1859_75912)" stroke-width="1.06667" stroke-linecap="round" stroke-linejoin="round"/>
<path d="M159.401 35.032C159.401 24.956 163.082 13.8433 167.433 5.99902" stroke="url(#paint18_linear_1859_75912)" stroke-width="1.06667" stroke-linecap="round" stroke-linejoin="round"/>
<defs>
<linearGradient id="paint0_linear_1859_75912" x1="159.511" y1="5.82178" x2="159.511" y2="314.178" gradientUnits="userSpaceOnUse">
<stop stop-color="#5BF0E7"/>
<stop offset="1" stop-color="#2B75BD"/>
</linearGradient>
<linearGradient id="paint1_linear_1859_75912" x1="159.511" y1="15.8411" x2="159.511" y2="59.0325" gradientUnits="userSpaceOnUse">
<stop stop-color="#5BF0E7"/>
<stop offset="1" stop-color="#2B75BD"/>
</linearGradient>
<linearGradient id="paint2_linear_1859_75912" x1="159.511" y1="45.8157" x2="159.511" y2="131.703" gradientUnits="userSpaceOnUse">
<stop stop-color="#5BF0E7"/>
<stop offset="1" stop-color="#2B75BD"/>
</linearGradient>
<linearGradient id="paint3_linear_1859_75912" x1="159.511" y1="126.359" x2="159.511" y2="215.282" gradientUnits="userSpaceOnUse">
<stop stop-color="#5BF0E7"/>
<stop offset="1" stop-color="#2B75BD"/>
</linearGradient>
<linearGradient id="paint4_linear_1859_75912" x1="159.511" y1="226.408" x2="159.511" y2="276.988" gradientUnits="userSpaceOnUse">
<stop stop-color="#5BF0E7"/>
<stop offset="1" stop-color="#2B75BD"/>
</linearGradient>
<linearGradient id="paint5_linear_1859_75912" x1="140.712" y1="36.5322" x2="140.712" y2="311.332" gradientUnits="userSpaceOnUse">
<stop stop-color="#5BF0E7"/>
<stop offset="1" stop-color="#2B75BD"/>
</linearGradient>
<linearGradient id="paint6_linear_1859_75912" x1="107.197" y1="35.699" x2="107.197" y2="279.266" gradientUnits="userSpaceOnUse">
<stop stop-color="#5BF0E7"/>
<stop offset="1" stop-color="#2B75BD"/>
</linearGradient>
<linearGradient id="paint7_linear_1859_75912" x1="85.6617" y1="35.1907" x2="85.6617" y2="220.17" gradientUnits="userSpaceOnUse">
<stop stop-color="#5BF0E7"/>
<stop offset="1" stop-color="#2B75BD"/>
</linearGradient>
<linearGradient id="paint8_linear_1859_75912" x1="98.5325" y1="30.3235" x2="98.5325" y2="65.8378" gradientUnits="userSpaceOnUse">
<stop stop-color="#5BF0E7"/>
<stop offset="1" stop-color="#2B75BD"/>
</linearGradient>
<linearGradient id="paint9_linear_1859_75912" x1="127.2" y1="19.1135" x2="127.2" y2="35.0322" gradientUnits="userSpaceOnUse">
<stop stop-color="#5BF0E7"/>
<stop offset="1" stop-color="#2B75BD"/>
</linearGradient>
<linearGradient id="paint10_linear_1859_75912" x1="145.064" y1="8.53223" x2="145.064" y2="35.0318" gradientUnits="userSpaceOnUse">
<stop stop-color="#5BF0E7"/>
<stop offset="1" stop-color="#2B75BD"/>
</linearGradient>
<linearGradient id="paint11_linear_1859_75912" x1="155.606" y1="5.99902" x2="155.606" y2="35.032" gradientUnits="userSpaceOnUse">
<stop stop-color="#5BF0E7"/>
<stop offset="1" stop-color="#2B75BD"/>
</linearGradient>
<linearGradient id="paint12_linear_1859_75912" x1="178.311" y1="36.5322" x2="178.311" y2="311.332" gradientUnits="userSpaceOnUse">
<stop stop-color="#5BF0E7"/>
<stop offset="1" stop-color="#2B75BD"/>
</linearGradient>
<linearGradient id="paint13_linear_1859_75912" x1="211.825" y1="35.699" x2="211.825" y2="279.266" gradientUnits="userSpaceOnUse">
<stop stop-color="#5BF0E7"/>
<stop offset="1" stop-color="#2B75BD"/>
</linearGradient>
<linearGradient id="paint14_linear_1859_75912" x1="233.361" y1="35.1907" x2="233.361" y2="220.17" gradientUnits="userSpaceOnUse">
<stop stop-color="#5BF0E7"/>
<stop offset="1" stop-color="#2B75BD"/>
</linearGradient>
<linearGradient id="paint15_linear_1859_75912" x1="220.49" y1="30.3235" x2="220.49" y2="65.8378" gradientUnits="userSpaceOnUse">
<stop stop-color="#5BF0E7"/>
<stop offset="1" stop-color="#2B75BD"/>
</linearGradient>
<linearGradient id="paint16_linear_1859_75912" x1="191.823" y1="19.1135" x2="191.823" y2="35.0322" gradientUnits="userSpaceOnUse">
<stop stop-color="#5BF0E7"/>
<stop offset="1" stop-color="#2B75BD"/>
</linearGradient>
<linearGradient id="paint17_linear_1859_75912" x1="173.959" y1="8.53223" x2="173.959" y2="35.0318" gradientUnits="userSpaceOnUse">
<stop stop-color="#5BF0E7"/>
<stop offset="1" stop-color="#2B75BD"/>
</linearGradient>
<linearGradient id="paint18_linear_1859_75912" x1="163.417" y1="5.99902" x2="163.417" y2="35.032" gradientUnits="userSpaceOnUse">
<stop stop-color="#5BF0E7"/>
<stop offset="1" stop-color="#2B75BD"/>
</linearGradient>
</defs>
</svg>
